<?xml version="1.0" encoding="UTF-8"?>
<!--Generator: Apple Native CoreSVG 175.5-->
<!DOCTYPE svg
PUBLIC "-//W3C//DTD SVG 1.1//EN"
       "http://www.w3.org/Graphics/SVG/1.1/DTD/svg11.dtd">
<svg version="1.1" xmlns="http://www.w3.org/2000/svg" xmlns:xlink="http://www.w3.org/1999/xlink" width="3300" height="2200">
 <!--glyph: "", point size: 100.0, font version: "18.0d12e2", template writer version: "101"-->
 <g id="Notes">
  <rect height="2200" id="artboard" style="fill:white;opacity:1" width="3300" x="0" y="0"/>
  <line style="fill:none;stroke:black;opacity:1;stroke-width:0.5;" x1="263" x2="3036" y1="292" y2="292"/>
  <text style="stroke:none;fill:black;font-family:sans-serif;font-size:13;font-weight:bold;" transform="matrix(1 0 0 1 263 322)">Weight/Scale Variations</text>
  <text style="stroke:none;fill:black;font-family:sans-serif;font-size:13;text-anchor:middle;" transform="matrix(1 0 0 1 559.711 322)">Ultralight</text>
  <text style="stroke:none;fill:black;font-family:sans-serif;font-size:13;text-anchor:middle;" transform="matrix(1 0 0 1 856.422 322)">Thin</text>
  <text style="stroke:none;fill:black;font-family:sans-serif;font-size:13;text-anchor:middle;" transform="matrix(1 0 0 1 1153.13 322)">Light</text>
  <text style="stroke:none;fill:black;font-family:sans-serif;font-size:13;text-anchor:middle;" transform="matrix(1 0 0 1 1449.84 322)">Regular</text>
  <text style="stroke:none;fill:black;font-family:sans-serif;font-size:13;text-anchor:middle;" transform="matrix(1 0 0 1 1746.56 322)">Medium</text>
  <text style="stroke:none;fill:black;font-family:sans-serif;font-size:13;text-anchor:middle;" transform="matrix(1 0 0 1 2043.27 322)">Semibold</text>
  <text style="stroke:none;fill:black;font-family:sans-serif;font-size:13;text-anchor:middle;" transform="matrix(1 0 0 1 2339.98 322)">Bold</text>
  <text style="stroke:none;fill:black;font-family:sans-serif;font-size:13;text-anchor:middle;" transform="matrix(1 0 0 1 2636.69 322)">Heavy</text>
  <text style="stroke:none;fill:black;font-family:sans-serif;font-size:13;text-anchor:middle;" transform="matrix(1 0 0 1 2933.4 322)">Black</text>
  <line style="fill:none;stroke:black;opacity:1;stroke-width:0.5;" x1="263" x2="3036" y1="1903" y2="1903"/>
  <g transform="matrix(1 0 0 1 263 1933)">
   <path d="M9.24805 0.830078C13.5547 0.830078 17.1387-2.74414 17.1387-7.05078C17.1387-11.3574 13.5449-14.9316 9.23828-14.9316C4.94141-14.9316 1.36719-11.3574 1.36719-7.05078C1.36719-2.74414 4.95117 0.830078 9.24805 0.830078ZM9.24805-0.654297C5.70312-0.654297 2.87109-3.49609 2.87109-7.05078C2.87109-10.6055 5.69336-13.4473 9.23828-13.4473C12.793-13.4473 15.6445-10.6055 15.6445-7.05078C15.6445-3.49609 12.8027-0.654297 9.24805-0.654297ZM5.6543-7.05078C5.6543-6.62109 5.95703-6.32812 6.40625-6.32812L8.50586-6.32812L8.50586-4.20898C8.50586-3.76953 8.79883-3.4668 9.22852-3.4668C9.67773-3.4668 9.9707-3.76953 9.9707-4.20898L9.9707-6.32812L12.0898-6.32812C12.5293-6.32812 12.832-6.62109 12.832-7.05078C12.832-7.49023 12.5293-7.79297 12.0898-7.79297L9.9707-7.79297L9.9707-9.90234C9.9707-10.3516 9.67773-10.6543 9.22852-10.6543C8.79883-10.6543 8.50586-10.3516 8.50586-9.90234L8.50586-7.79297L6.40625-7.79297C5.95703-7.79297 5.6543-7.49023 5.6543-7.05078Z"/>
  </g>
  <g transform="matrix(1 0 0 1 281.867 1933)">
   <path d="M11.709 2.91016C17.1582 2.91016 21.6699-1.61133 21.6699-7.05078C21.6699-12.5 17.1484-17.0117 11.6992-17.0117C6.25977-17.0117 1.74805-12.5 1.74805-7.05078C1.74805-1.61133 6.26953 2.91016 11.709 2.91016ZM11.709 1.25C7.09961 1.25 3.41797-2.44141 3.41797-7.05078C3.41797-11.6602 7.08984-15.3516 11.6992-15.3516C16.3086-15.3516 20.0098-11.6602 20.0098-7.05078C20.0098-2.44141 16.3184 1.25 11.709 1.25ZM7.17773-7.05078C7.17773-6.57227 7.50977-6.25 8.00781-6.25L10.8789-6.25L10.8789-3.36914C10.8789-2.88086 11.2109-2.53906 11.6895-2.53906C12.1777-2.53906 12.5195-2.87109 12.5195-3.36914L12.5195-6.25L15.4004-6.25C15.8887-6.25 16.2305-6.57227 16.2305-7.05078C16.2305-7.53906 15.8887-7.88086 15.4004-7.88086L12.5195-7.88086L12.5195-10.752C12.5195-11.25 12.1777-11.5918 11.6895-11.5918C11.2109-11.5918 10.8789-11.25 10.8789-10.752L10.8789-7.88086L8.00781-7.88086C7.50977-7.88086 7.17773-7.53906 7.17773-7.05078Z"/>
  </g>
  <g transform="matrix(1 0 0 1 305.646 1933)">
   <path d="M14.9707 5.66406C21.9336 5.66406 27.6953-0.0976562 27.6953-7.05078C27.6953-14.0137 21.9238-19.7754 14.9609-19.7754C8.00781-19.7754 2.25586-14.0137 2.25586-7.05078C2.25586-0.0976562 8.01758 5.66406 14.9707 5.66406ZM14.9707 3.84766C8.93555 3.84766 4.08203-1.01562 4.08203-7.05078C4.08203-13.0957 8.92578-17.9492 14.9609-17.9492C21.0059-17.9492 25.8691-13.0957 25.8691-7.05078C25.8691-1.01562 21.0156 3.84766 14.9707 3.84766ZM9.19922-7.05078C9.19922-6.5332 9.57031-6.17188 10.1172-6.17188L14.0625-6.17188L14.0625-2.2168C14.0625-1.67969 14.4336-1.29883 14.9512-1.29883C15.4883-1.29883 15.8594-1.66992 15.8594-2.2168L15.8594-6.17188L19.8145-6.17188C20.3516-6.17188 20.7324-6.5332 20.7324-7.05078C20.7324-7.59766 20.3613-7.96875 19.8145-7.96875L15.8594-7.96875L15.8594-11.9141C15.8594-12.4609 15.4883-12.8418 14.9512-12.8418C14.4336-12.8418 14.0625-12.4609 14.0625-11.9141L14.0625-7.96875L10.1172-7.96875C9.57031-7.96875 9.19922-7.59766 9.19922-7.05078Z"/>
  </g>
  <text style="stroke:none;fill:black;font-family:sans-serif;font-size:13;font-weight:bold;" transform="matrix(1 0 0 1 263 1953)">Design Variations</text>
  <text style="stroke:none;fill:black;font-family:sans-serif;font-size:13;" transform="matrix(1 0 0 1 263 1971)">Symbols are supported in up to nine weights and three scales.</text>
  <text style="stroke:none;fill:black;font-family:sans-serif;font-size:13;" transform="matrix(1 0 0 1 263 1989)">For optimal layout with text and other symbols, vertically align</text>
  <text style="stroke:none;fill:black;font-family:sans-serif;font-size:13;" transform="matrix(1 0 0 1 263 2007)">symbols with the adjacent text.</text>
  <line style="fill:none;stroke:#00AEEF;stroke-width:0.5;opacity:1.0;" x1="776" x2="776" y1="1919" y2="1933"/>
  <g transform="matrix(1 0 0 1 776 1933)">
   <path d="M3.31055 0.15625C3.82812 0.15625 4.08203-0.0390625 4.26758-0.585938L5.52734-4.0332L11.2891-4.0332L12.5488-0.585938C12.7344-0.0390625 12.9883 0.15625 13.4961 0.15625C14.0137 0.15625 14.3457-0.15625 14.3457-0.644531C14.3457-0.810547 14.3164-0.966797 14.2383-1.17188L9.6582-13.3691C9.43359-13.9648 9.0332-14.2676 8.4082-14.2676C7.80273-14.2676 7.39258-13.9746 7.17773-13.3789L2.59766-1.16211C2.51953-0.957031 2.49023-0.800781 2.49023-0.634766C2.49023-0.146484 2.80273 0.15625 3.31055 0.15625ZM6.00586-5.51758L8.37891-12.0898L8.42773-12.0898L10.8008-5.51758Z"/>
  </g>
  <line style="fill:none;stroke:#00AEEF;stroke-width:0.5;opacity:1.0;" x1="793.197" x2="793.197" y1="1919" y2="1933"/>
  <text style="stroke:none;fill:black;font-family:sans-serif;font-size:13;font-weight:bold;" transform="matrix(1 0 0 1 776 1953)">Margins</text>
  <text style="stroke:none;fill:black;font-family:sans-serif;font-size:13;" transform="matrix(1 0 0 1 776 1971)">Leading and trailing margins on the left and right side of each symbol</text>
  <text style="stroke:none;fill:black;font-family:sans-serif;font-size:13;" transform="matrix(1 0 0 1 776 1989)">can be adjusted by modifying the x-location of the margin guidelines.</text>
  <text style="stroke:none;fill:black;font-family:sans-serif;font-size:13;" transform="matrix(1 0 0 1 776 2007)">Modifications are automatically applied proportionally to all</text>
  <text style="stroke:none;fill:black;font-family:sans-serif;font-size:13;" transform="matrix(1 0 0 1 776 2025)">scales and weights.</text>
  <g transform="matrix(1 0 0 1 1289 1933)">
   <path d="M2.8418 1.86523L4.54102 3.57422C5.40039 4.44336 6.38672 4.38477 7.31445 3.35938L18.0078-8.42773L17.041-9.4043L6.42578 2.27539C6.07422 2.67578 5.74219 2.77344 5.27344 2.30469L4.10156 1.14258C3.63281 0.683594 3.74023 0.341797 4.14062-0.0195312L15.6152-10.8203L14.6387-11.7871L3.04688-0.898438C2.06055 0.0195312 1.98242 0.996094 2.8418 1.86523ZM9.25781-16.3281C8.83789-15.918 8.80859-15.3418 9.04297-14.9512C9.27734-14.5898 9.73633-14.3555 10.3809-14.5215C11.8457-14.8633 13.3691-14.9219 14.7949-13.9844L14.209-12.5293C13.8672-11.6992 14.043-11.1133 14.5801-10.5664L16.875-8.25195C17.3633-7.76367 17.7734-7.74414 18.3398-7.8418L19.4043-8.03711L20.0684-7.36328L20.0293-6.80664C19.9902-6.30859 20.1172-5.92773 20.6055-5.44922L21.3672-4.70703C21.8457-4.22852 22.4609-4.19922 22.9297-4.66797L25.8398-7.58789C26.3086-8.05664 26.2891-8.65234 25.8105-9.13086L25.0391-9.89258C24.5605-10.3711 24.1895-10.5273 23.7109-10.4883L23.1348-10.4395L22.4902-11.0742L22.7344-12.1973C22.8613-12.7637 22.7051-13.2031 22.1191-13.7891L19.9219-15.9766C16.582-19.2969 12.1484-19.2188 9.25781-16.3281ZM10.752-15.957C13.1836-17.7344 16.4746-17.4316 18.7012-15.2051L21.1328-12.793C21.3672-12.5586 21.4062-12.373 21.3379-12.0312L21.0156-10.5469L22.5195-9.0625L23.5059-9.12109C23.7598-9.13086 23.8379-9.11133 24.0332-8.91602L24.6094-8.33984L22.168-5.89844L21.5918-6.47461C21.3965-6.66992 21.3672-6.74805 21.377-7.01172L21.4453-7.98828L19.9512-9.47266L18.4277-9.21875C18.1055-9.15039 17.959-9.17969 17.7148-9.41406L15.7129-11.416C15.459-11.6504 15.4297-11.8164 15.5859-12.1875L16.4648-14.2773C14.9023-15.7324 12.8711-16.3574 10.8398-15.7617C10.6836-15.7227 10.625-15.8496 10.752-15.957Z"/>
  </g>
  <text style="stroke:none;fill:black;font-family:sans-serif;font-size:13;font-weight:bold;" transform="matrix(1 0 0 1 1289 1953)">Exporting</text>
  <text style="stroke:none;fill:black;font-family:sans-serif;font-size:13;" transform="matrix(1 0 0 1 1289 1971)">Symbols should be outlined when exporting to ensure the</text>
  <text style="stroke:none;fill:black;font-family:sans-serif;font-size:13;" transform="matrix(1 0 0 1 1289 1989)">design is preserved when submitting to Xcode.</text>
  <text id="template-version" style="stroke:none;fill:black;font-family:sans-serif;font-size:13;text-anchor:end;" transform="matrix(1 0 0 1 3036 1933)">Template v.2.0</text>
  <text style="stroke:none;fill:black;font-family:sans-serif;font-size:13;text-anchor:end;" transform="matrix(1 0 0 1 3036 1951)">Requires Xcode 12 or greater</text>
  <text id="descriptive-name" style="stroke:none;fill:black;font-family:sans-serif;font-size:13;text-anchor:end;" transform="matrix(1 0 0 1 3036 1969)">Generated from minus.viewfinder</text>
  <text style="stroke:none;fill:black;font-family:sans-serif;font-size:13;text-anchor:end;" transform="matrix(1 0 0 1 3036 1987)">Typeset at 100 points</text>
  <text style="stroke:none;fill:black;font-family:sans-serif;font-size:13;" transform="matrix(1 0 0 1 263 726)">Small</text>
  <text style="stroke:none;fill:black;font-family:sans-serif;font-size:13;" transform="matrix(1 0 0 1 263 1156)">Medium</text>
  <text style="stroke:none;fill:black;font-family:sans-serif;font-size:13;" transform="matrix(1 0 0 1 263 1586)">Large</text>
 </g>
 <g id="Guides">
  <g id="H-reference" style="fill:#27AAE1;stroke:none;" transform="matrix(1 0 0 1 339 696)">
   <path d="M0.993654 0L3.63775 0L29.3281-67.1323L30.0303-67.1323L30.0303-70.459L28.1226-70.459ZM11.6885-24.4799L46.9815-24.4799L46.2315-26.7285L12.4385-26.7285ZM55.1196 0L57.7637 0L30.6382-70.459L29.4326-70.459L29.4326-67.1323Z"/>
  </g>
  <line id="Baseline-S" style="fill:none;stroke:#27AAE1;opacity:1;stroke-width:0.5;" x1="263" x2="3036" y1="696" y2="696"/>
  <line id="Capline-S" style="fill:none;stroke:#27AAE1;opacity:1;stroke-width:0.5;" x1="263" x2="3036" y1="625.541" y2="625.541"/>
  <g id="H-reference" style="fill:#27AAE1;stroke:none;" transform="matrix(1 0 0 1 339 1126)">
   <path d="M0.993654 0L3.63775 0L29.3281-67.1323L30.0303-67.1323L30.0303-70.459L28.1226-70.459ZM11.6885-24.4799L46.9815-24.4799L46.2315-26.7285L12.4385-26.7285ZM55.1196 0L57.7637 0L30.6382-70.459L29.4326-70.459L29.4326-67.1323Z"/>
  </g>
  <line id="Baseline-M" style="fill:none;stroke:#27AAE1;opacity:1;stroke-width:0.5;" x1="263" x2="3036" y1="1126" y2="1126"/>
  <line id="Capline-M" style="fill:none;stroke:#27AAE1;opacity:1;stroke-width:0.5;" x1="263" x2="3036" y1="1055.54" y2="1055.54"/>
  <g id="H-reference" style="fill:#27AAE1;stroke:none;" transform="matrix(1 0 0 1 339 1556)">
   <path d="M0.993654 0L3.63775 0L29.3281-67.1323L30.0303-67.1323L30.0303-70.459L28.1226-70.459ZM11.6885-24.4799L46.9815-24.4799L46.2315-26.7285L12.4385-26.7285ZM55.1196 0L57.7637 0L30.6382-70.459L29.4326-70.459L29.4326-67.1323Z"/>
  </g>
  <line id="Baseline-L" style="fill:none;stroke:#27AAE1;opacity:1;stroke-width:0.5;" x1="263" x2="3036" y1="1556" y2="1556"/>
  <line id="Capline-L" style="fill:none;stroke:#27AAE1;opacity:1;stroke-width:0.5;" x1="263" x2="3036" y1="1485.54" y2="1485.54"/>
  <line id="left-margin" style="fill:none;stroke:#00AEEF;stroke-width:0.5;opacity:1.0;" x1="1389.61" x2="1389.61" y1="1030.79" y2="1150.12"/>
  <line id="right-margin" style="fill:none;stroke:#00AEEF;stroke-width:0.5;opacity:1.0;" x1="1510.08" x2="1510.08" y1="1030.79" y2="1150.12"/>
 </g>
 <g id="Symbols">
  <g id="Black-L" transform="matrix(1 0 0 1 2852.33 1556)">
   <path d="M26.0748-51.5284C32.5579-51.5284 36.0653-55.1164 36.0653-61.5996L36.0653-73.6475C36.0653-78.259 38.2705-80.1892 42.5865-80.1892L54.7372-80.1892C61.279-80.1892 64.8069-83.7175 64.8069-90.1797C64.8069-96.6629 61.279-100.191 54.7372-100.191L39.8557-100.191C24.7127-100.191 16.0846-91.5836 16.0846-76.4823L16.0846-61.5996C16.0846-55.059 19.6124-51.5284 26.0748-51.5284ZM136.077-51.5284C142.561-51.5284 146.067-55.059 146.067-61.5996L146.067-76.4823C146.067-91.5812 137.461-100.191 122.296-100.191L107.416-100.191C100.873-100.191 97.3447-96.6629 97.3447-90.1797C97.3447-83.7175 100.931-80.1892 107.416-80.1892L119.565-80.1892C123.876-80.1892 126.087-78.259 126.087-73.6475L126.087-61.5996C126.087-55.059 129.616-51.5284 136.077-51.5284ZM39.8557 29.8149L54.7372 29.8149C61.279 29.8149 64.8069 26.287 64.8069 19.8247C64.8069 13.3415 61.2204 9.81326 54.7372 9.81326L42.5865 9.81326C38.2705 9.81326 36.0653 7.88308 36.0653 3.27041L36.0653-8.75585C36.0653-15.3181 32.5371-18.8476 26.0748-18.8476C19.5915-18.8476 16.0846-15.3181 16.0846-8.75585L16.0846 6.10521C16.0846 21.2076 24.7127 29.8149 39.8557 29.8149ZM107.416 29.8149L122.296 29.8149C137.461 29.8149 146.067 21.2052 146.067 6.10521L146.067-8.75585C146.067-15.3181 142.54-18.8476 136.077-18.8476C129.595-18.8476 126.087-15.2595 126.087-8.75585L126.087 3.27041C126.087 7.88308 123.876 9.81326 119.565 9.81326L107.416 9.81326C100.873 9.81326 97.3447 13.3415 97.3447 19.8247C97.3447 26.287 100.873 29.8149 107.416 29.8149ZM47.578-35.188C47.578-30.582 50.9221-27.1417 55.4537-27.1417L106.719-27.1417C111.231-27.1417 114.573-30.582 114.573-35.188C114.573-39.8172 111.232-43.2784 106.719-43.2784L55.4537-43.2784C50.9209-43.2784 47.578-39.8172 47.578-35.188Z"/>
  </g>
  <g id="Heavy-L" transform="matrix(1 0 0 1 2556.49 1556)">
   <path d="M24.8344-52.7679C30.515-52.7679 33.5846-55.9182 33.5846-61.5989L33.5846-74.384C33.5846-79.4904 36.118-81.785 40.9559-81.785L53.891-81.785C59.6164-81.785 62.7157-84.8849 62.7157-90.5353C62.7157-96.216 59.6164-99.3153 53.891-99.3153L38.8316-99.3153C24.2191-99.3153 16.0846-91.2111 16.0846-76.6591L16.0846-61.5989C16.0846-55.8743 19.1838-52.7679 24.8344-52.7679ZM135.562-52.7679C141.248-52.7679 144.311-55.8743 144.311-61.5989L144.311-76.6591C144.311-91.2 136.213-99.3153 121.564-99.3153L106.511-99.3153C100.779-99.3153 97.6801-96.216 97.6801-90.5353C97.6801-84.8849 100.824-81.785 106.511-81.785L119.44-81.785C124.255-81.785 126.817-79.4904 126.817-74.384L126.817-61.5989C126.817-55.8743 129.912-52.7679 135.562-52.7679ZM38.8316 28.9483L53.891 28.9483C59.6164 28.9483 62.7157 25.8489 62.7157 20.1985C62.7157 14.5177 59.5716 11.4179 53.891 11.4179L40.9559 11.4179C36.118 11.4179 33.5846 9.12318 33.5846 4.01594L33.5846-8.73855C33.5846-14.4937 30.4848-17.5993 24.8344-17.5993C19.1536-17.5993 16.0846-14.4937 16.0846-8.73855L16.0846 6.29116C16.0846 20.844 24.2191 28.9483 38.8316 28.9483ZM106.511 28.9483L121.564 28.9483C136.213 28.9483 144.311 20.8328 144.311 6.29116L144.311-8.73855C144.311-14.4937 141.218-17.5993 135.562-17.5993C129.882-17.5993 126.817-14.449 126.817-8.73855L126.817 4.01594C126.817 9.12318 124.255 11.4179 119.44 11.4179L106.511 11.4179C100.779 11.4179 97.6801 14.5177 97.6801 20.1985C97.6801 25.8489 100.779 28.9483 106.511 28.9483ZM45.8095-35.1836C45.8095-30.9942 48.8541-27.8903 53.0201-27.8903L107.406-27.8903C111.547-27.8903 114.586-30.9942 114.586-35.1836C114.586-39.4145 111.553-42.5486 107.406-42.5486L53.0201-42.5486C48.8485-42.5486 45.8095-39.4145 45.8095-35.1836Z"/>
  </g>
  <g id="Bold-L" transform="matrix(1 0 0 1 2260.93 1556)">
   <path d="M23.305-54.1707C27.9942-54.1707 30.5258-56.783 30.5258-61.4722L30.5258-75.1865C30.5258-80.9374 33.4665-83.6852 38.9873-83.6852L52.8908-83.6852C57.6093-83.6852 60.1784-86.2551 60.1784-90.9063C60.1784-95.5955 57.6093-98.1647 52.8908-98.1647L37.5415-98.1647C23.6267-98.1647 16.0846-90.6606 16.0846-76.8221L16.0846-61.4722C16.0846-56.7543 18.6535-54.1707 23.305-54.1707ZM134.79-54.1707C139.492-54.1707 142.01-56.7543 142.01-61.4722L142.01-76.8221C142.01-90.6343 134.519-98.1647 120.553-98.1647L105.217-98.1647C100.485-98.1647 97.9161-95.5955 97.9161-90.9063C97.9161-86.2551 100.515-83.6852 105.217-83.6852L119.107-83.6852C124.575-83.6852 127.582-80.9374 127.582-75.1865L127.582-61.4722C127.582-56.7543 130.139-54.1707 134.79-54.1707ZM37.5415 27.8129L52.8908 27.8129C57.6093 27.8129 60.1784 25.2437 60.1784 20.5925C60.1784 15.903 57.58 13.3334 52.8908 13.3334L38.9873 13.3334C33.4665 13.3334 30.5258 10.5853 30.5258 4.83382L30.5258-8.84234C30.5258-13.5984 27.9562-16.1814 23.305-16.1814C18.6155-16.1814 16.0846-13.5984 16.0846-8.84234L16.0846 6.46971C16.0846 20.3088 23.6267 27.8129 37.5415 27.8129ZM105.217 27.8129L120.553 27.8129C134.519 27.8129 142.01 20.2823 142.01 6.46971L142.01-8.84234C142.01-13.5984 139.454-16.1814 134.79-16.1814C130.101-16.1814 127.582-13.5691 127.582-8.84234L127.582 4.83382C127.582 10.5853 124.575 13.3334 119.107 13.3334L105.217 13.3334C100.485 13.3334 97.9161 15.903 97.9161 20.5925C97.9161 25.2437 100.485 27.8129 105.217 27.8129ZM43.7321-35.176C43.7321-31.5462 46.3855-28.8722 50.0461-28.8722L108.086-28.8722C111.722-28.8722 114.362-31.5462 114.362-35.176C114.362-38.8704 111.736-41.5824 108.086-41.5824L50.0461-41.5824C46.3724-41.5824 43.7321-38.8704 43.7321-35.176Z"/>
  </g>
  <g id="Semibold-L" transform="matrix(1 0 0 1 1965.01 1556)">
   <path d="M22.2506-55.1377C26.2564-55.1377 28.4171-57.3792 28.4171-61.3849L28.4171-75.7397C28.4171-81.935 31.6386-84.9952 37.6301-84.9952L52.2012-84.9952C56.2256-84.9952 58.4293-87.1997 58.4293-91.1621C58.4293-95.1678 56.2256-97.3715 52.2012-97.3715L36.6521-97.3715C23.2184-97.3715 16.0846-90.281 16.0846-76.9345L16.0846-61.3849C16.0846-57.3609 18.2879-55.1377 22.2506-55.1377ZM134.258-55.1377C138.282-55.1377 140.424-57.3609 140.424-61.3849L140.424-76.9345C140.424-90.2444 133.352-97.3715 119.856-97.3715L104.326-97.3715C100.282-97.3715 98.0788-95.1678 98.0788-91.1621C98.0788-87.1997 100.301-84.9952 104.326-84.9952L118.878-84.9952C124.795-84.9952 128.109-81.935 128.109-75.7397L128.109-61.3849C128.109-57.3609 130.296-55.1377 134.258-55.1377ZM36.6521 27.0302L52.2012 27.0302C56.2256 27.0302 58.4293 24.8265 58.4293 20.8642C58.4293 16.858 56.207 14.6539 52.2012 14.6539L37.6301 14.6539C31.6386 14.6539 28.4171 11.5933 28.4171 5.39767L28.4171-8.91389C28.4171-12.9811 26.213-15.204 22.2506-15.204C18.2445-15.204 16.0846-12.9811 16.0846-8.91389L16.0846 6.5928C16.0846 19.9398 23.2184 27.0302 36.6521 27.0302ZM104.326 27.0302L119.856 27.0302C133.352 27.0302 140.424 19.9027 140.424 6.5928L140.424-8.91389C140.424-12.9811 138.238-15.204 134.258-15.204C130.252-15.204 128.109-12.9625 128.109-8.91389L128.109 5.39767C128.109 11.5933 124.795 14.6539 118.878 14.6539L104.326 14.6539C100.282 14.6539 98.0788 16.858 98.0788 20.8642C98.0788 24.8265 100.282 27.0302 104.326 27.0302ZM42.3-35.1708C42.3-31.9268 44.6837-29.5491 47.9959-29.5491L108.555-29.5491C111.843-29.5491 114.208-31.9268 114.208-35.1708C114.208-38.4953 111.861-40.9163 108.555-40.9163L47.9959-40.9163C44.6654-40.9163 42.3-38.4953 42.3-35.1708Z"/>
  </g>
  <g id="Medium-L" transform="matrix(1 0 0 1 1668.9 1556)">
   <path d="M21.4512-55.871C24.9387-55.871 26.8182-57.8312 26.8182-61.3187L26.8182-76.1592C26.8182-82.6914 30.2526-85.9885 36.6011-85.9885L51.6784-85.9885C55.1764-85.9885 57.1029-87.916 57.1029-91.356C57.1029-94.8435 55.1764-96.77 51.6784-96.77L35.9777-96.77C22.9088-96.77 16.0846-89.9933 16.0846-77.0196L16.0846-61.3187C16.0846-57.8209 18.0106-55.871 21.4512-55.871ZM133.854-55.871C137.365-55.871 139.221-57.8209 139.221-61.3187L139.221-77.0196C139.221-89.9487 132.466-96.77 119.328-96.77L103.649-96.77C100.129-96.77 98.2021-94.8435 98.2021-91.356C98.2021-87.916 100.139-85.9885 103.649-85.9885L118.704-85.9885C124.962-85.9885 128.509-82.6914 128.509-76.1592L128.509-61.3187C128.509-57.8209 130.415-55.871 133.854-55.871ZM35.9777 26.4367L51.6784 26.4367C55.1764 26.4367 57.1029 24.5102 57.1029 21.0701C57.1029 17.5822 55.1659 15.6552 51.6784 15.6552L36.6011 15.6552C30.2526 15.6552 26.8182 12.3576 26.8182 5.8252L26.8182-8.96814C26.8182-12.5131 24.8913-14.4628 21.4512-14.4628C17.9632-14.4628 16.0846-12.5131 16.0846-8.96814L16.0846 6.68613C16.0846 19.66 22.9088 26.4367 35.9777 26.4367ZM103.649 26.4367L119.328 26.4367C132.466 26.4367 139.221 19.6149 139.221 6.68613L139.221-8.96814C139.221-12.5131 137.317-14.4628 133.854-14.4628C130.367-14.4628 128.509-12.5026 128.509-8.96814L128.509 5.8252C128.509 12.3576 124.962 15.6552 118.704 15.6552L103.649 15.6552C100.129 15.6552 98.2021 17.5822 98.2021 21.0701C98.2021 24.5102 100.129 26.4367 103.649 26.4367ZM41.2141-35.1669C41.2141-32.2154 43.3933-30.0624 46.4413-30.0624L108.911-30.0624C111.934-30.0624 114.091-32.2154 114.091-35.1669C114.091-38.2108 111.957-40.4112 108.911-40.4112L46.4413-40.4112C43.3711-40.4112 41.2141-38.2108 41.2141-35.1669Z"/>
  </g>
  <g id="Regular-L" transform="matrix(1 0 0 1 1372.98 1556)">
   <path d="M20.4084-56.8274C23.2199-56.8274 24.7327-58.4209 24.7327-61.2323L24.7327-76.7063C24.7327-83.678 28.4448-87.2841 35.2588-87.2841L50.9964-87.2841C53.8079-87.2841 55.373-88.8502 55.373-91.609C55.373-94.4205 53.8079-95.9855 50.9964-95.9855L35.098-95.9855C22.5049-95.9855 16.0846-89.6179 16.0846-77.1308L16.0846-61.2323C16.0846-58.4209 17.649-56.8274 20.4084-56.8274ZM133.328-56.8274C136.168-56.8274 137.652-58.4209 137.652-61.2323L137.652-77.1308C137.652-89.5631 131.312-95.9855 118.639-95.9855L102.768-95.9855C99.9281-95.9855 98.363-94.4205 98.363-91.609C98.363-88.8502 99.9281-87.2841 102.768-87.2841L118.477-87.2841C125.18-87.2841 129.031-83.678 129.031-76.7063L129.031-61.2323C129.031-58.4209 130.569-56.8274 133.328-56.8274ZM35.098 25.6626L50.9964 25.6626C53.8079 25.6626 55.373 24.0976 55.373 21.3388C55.373 18.5267 53.8079 16.9612 50.9964 16.9612L35.2588 16.9612C28.4448 16.9612 24.7327 13.3545 24.7327 6.38285L24.7327-9.0389C24.7327-11.9026 23.1672-13.4961 20.4084-13.4961C17.5964-13.4961 16.0846-11.9026 16.0846-9.0389L16.0846 6.80787C16.0846 19.295 22.5049 25.6626 35.098 25.6626ZM102.768 25.6626L118.639 25.6626C131.312 25.6626 137.652 19.2396 137.652 6.80787L137.652-9.0389C137.652-11.9026 136.114-13.4961 133.328-13.4961C130.516-13.4961 129.031-11.9026 129.031-9.0389L129.031 6.38285C129.031 13.3545 125.18 16.9612 118.477 16.9612L102.768 16.9612C99.9281 16.9612 98.363 18.5267 98.363 21.3388C98.363 24.0976 99.9281 25.6626 102.768 25.6626ZM39.7977-35.1617C39.7977-32.5918 41.7102-30.7319 44.4136-30.7319L109.375-30.7319C112.054-30.7319 113.938-32.5918 113.938-35.1617C113.938-37.8398 112.081-39.7524 109.375-39.7524L44.4136-39.7524C41.6828-39.7524 39.7977-37.8398 39.7977-35.1617Z"/>
  </g>
  <g id="Light-L" transform="matrix(1 0 0 1 1077.47 1556)">
   <path d="M19.3972-56.9421C21.5404-56.9421 22.7094-58.1918 22.7094-60.335L22.7094-76.5538C22.7094-84.1744 26.7077-88.1049 34.2278-88.1049L50.6148-88.1049C52.758-88.1049 53.9608-89.3083 53.9608-91.4182C53.9608-93.5614 52.758-94.7641 50.6148-94.7641L34.0675-94.7641C22.2187-94.7641 16.0846-88.6634 16.0846-76.8824L16.0846-60.335C16.0846-58.1918 17.2863-56.9421 19.3972-56.9421ZM131.935-56.9421C134.125-56.9421 135.248-58.1918 135.248-60.335L135.248-76.8824C135.248-88.5708 129.193-94.7641 117.265-94.7641L100.764-94.7641C98.5731-94.7641 97.3703-93.5614 97.3703-91.4182C97.3703-89.3083 98.5731-88.1049 100.764-88.1049L117.103-88.1049C124.436-88.1049 128.668-84.1744 128.668-76.5538L128.668-60.335C128.668-58.1918 129.825-56.9421 131.935-56.9421ZM34.0675 24.4795L50.6148 24.4795C52.758 24.4795 53.9608 23.2767 53.9608 21.1669C53.9608 19.0226 52.758 17.8203 50.6148 17.8203L34.2278 17.8203C26.7077 17.8203 22.7094 13.8887 22.7094 6.26811L22.7094-9.91689C22.7094-12.0939 21.5071-13.3436 19.3972-13.3436C17.253-13.3436 16.0846-12.0939 16.0846-9.91689L16.0846 6.59773C16.0846 18.3788 22.2187 24.4795 34.0675 24.4795ZM100.764 24.4795L117.265 24.4795C129.193 24.4795 135.248 18.2851 135.248 6.59773L135.248-9.91689C135.248-12.0939 134.091-13.3436 131.935-13.3436C129.791-13.3436 128.668-12.0939 128.668-9.91689L128.668 6.26811C128.668 13.8887 124.436 17.8203 117.103 17.8203L100.764 17.8203C98.5731 17.8203 97.3703 19.0226 97.3703 21.1669C97.3703 23.2767 98.5731 24.4795 100.764 24.4795ZM39.0916-35.1428C39.0916-33.2407 40.6032-31.7625 42.6194-31.7625L108.745-31.7625C110.775-31.7625 112.24-33.2407 112.24-35.1428C112.24-37.172 110.822-38.6836 108.745-38.6836L42.6194-38.6836C40.5569-38.6836 39.0916-37.172 39.0916-35.1428Z"/>
  </g>
  <g id="Thin-L" transform="matrix(1 0 0 1 782.346 1556)">
   <path d="M18.0598-57.0939C19.3192-57.0939 20.0335-57.8888 20.0335-59.1482L20.0335-76.352C20.0335-84.8309 24.4103-89.1905 32.8643-89.1905L50.1101-89.1905C51.3695-89.1905 52.0931-89.9142 52.0931-91.1658C52.0931-92.4252 51.3695-93.1488 50.1101-93.1488L32.7045-93.1488C21.8401-93.1488 16.0846-87.401 16.0846-76.5538L16.0846-59.1482C16.0846-57.8888 16.8066-57.0939 18.0598-57.0939ZM130.092-57.0939C131.425-57.0939 132.067-57.8888 132.067-59.1482L132.067-76.5538C132.067-87.2584 126.391-93.1488 115.448-93.1488L98.1133-93.1488C96.781-93.1488 96.0574-92.4252 96.0574-91.1658C96.0574-89.9142 96.781-89.1905 98.1133-89.1905L115.286-89.1905C123.452-89.1905 128.188-84.8309 128.188-76.352L128.188-59.1482C128.188-57.8888 128.841-57.0939 130.092-57.0939ZM32.7045 22.9147L50.1101 22.9147C51.3695 22.9147 52.0931 22.1911 52.0931 20.9395C52.0931 19.6786 51.3695 18.9565 50.1101 18.9565L32.8643 18.9565C24.4103 18.9565 20.0335 14.5952 20.0335 6.11636L20.0335-11.0781C20.0335-12.3468 19.3114-13.1418 18.0598-13.1418C16.7988-13.1418 16.0846-12.3468 16.0846-11.0781L16.0846 6.31979C16.0846 17.167 21.8401 22.9147 32.7045 22.9147ZM98.1133 22.9147L115.448 22.9147C126.391 22.9147 132.067 17.0227 132.067 6.31979L132.067-11.0781C132.067-12.3468 131.415-13.1418 130.092-13.1418C128.831-13.1418 128.188-12.3468 128.188-11.0781L128.188 6.11636C128.188 14.5952 123.452 18.9565 115.286 18.9565L98.1133 18.9565C96.781 18.9565 96.0574 19.6786 96.0574 20.9395C96.0574 22.1911 96.781 22.9147 98.1133 22.9147ZM38.1578-35.1178C38.1578-34.099 39.139-33.1255 40.2464-33.1255L107.912-33.1255C109.084-33.1255 109.993-34.099 109.993-35.1178C109.993-36.2887 109.156-37.27 107.912-37.27L40.2464-37.27C39.0677-37.27 38.1578-36.2887 38.1578-35.1178Z"/>
  </g>
  <g id="Ultralight-L" transform="matrix(1 0 0 1 486.45 1556)">
   <path d="M17.3748-57.1716C18.1815-57.1716 18.6629-57.7337 18.6629-58.5404L18.6629-76.2486C18.6629-85.1671 23.2336-89.7466 32.1659-89.7466L49.8516-89.7466C50.6583-89.7466 51.1364-90.2245 51.1364-91.0365C51.1364-91.8432 50.6583-92.3214 49.8516-92.3214L32.0064-92.3214C21.6462-92.3214 16.0846-86.7545 16.0846-76.3856L16.0846-58.5404C16.0846-57.7337 16.5609-57.1716 17.3748-57.1716ZM129.148-57.1716C130.041-57.1716 130.439-57.7337 130.439-58.5404L130.439-76.3856C130.439-86.5862 124.956-92.3214 114.517-92.3214L96.7558-92.3214C95.863-92.3214 95.3849-91.8432 95.3849-91.0365C95.3849-90.2245 95.863-89.7466 96.7558-89.7466L114.355-89.7466C122.947-89.7466 127.943-85.1671 127.943-76.2486L127.943-58.5404C127.943-57.7337 128.336-57.1716 129.148-57.1716ZM32.0064 22.1133L49.8516 22.1133C50.6583 22.1133 51.1364 21.6351 51.1364 20.8231C51.1364 20.0145 50.6583 19.5384 49.8516 19.5384L32.1659 19.5384C23.2336 19.5384 18.6629 14.9571 18.6629 6.03863L18.6629-11.6729C18.6629-12.4763 18.1868-13.0384 17.3748-13.0384C16.5662-13.0384 16.0846-12.4763 16.0846-11.6729L16.0846 6.17744C16.0846 16.5463 21.6462 22.1133 32.0064 22.1133ZM96.7558 22.1133L114.517 22.1133C124.956 22.1133 130.439 16.3762 130.439 6.17744L130.439-11.6729C130.439-12.4763 130.045-13.0384 129.148-13.0384C128.34-13.0384 127.943-12.4763 127.943-11.6729L127.943 6.03863C127.943 14.9571 122.947 19.5384 114.355 19.5384L96.7558 19.5384C95.863 19.5384 95.3849 20.0145 95.3849 20.8231C95.3849 21.6351 95.863 22.1133 96.7558 22.1133ZM37.6794-35.105C37.6794-34.5385 38.3891-33.8236 39.0309-33.8236L107.485-33.8236C108.218-33.8236 108.842-34.5385 108.842-35.105C108.842-35.8363 108.302-36.546 107.485-36.546L39.0309-36.546C38.3049-36.546 37.6794-35.8363 37.6794-35.105Z"/>
  </g>
  <g id="Black-M" transform="matrix(1 0 0 1 2870 1126)">
   <path d="M21.1302-46.8071C26.7522-46.8071 29.7992-49.9166 29.7992-55.5386L29.7992-64.3399C29.7992-67.5753 31.2643-68.8014 34.2552-68.8014L43.0828-68.8014C48.7621-68.8014 51.8145-71.8539 51.8145-77.4703C51.8145-83.0923 48.7621-86.1446 43.0828-86.1446L31.6184-86.1446C19.5314-86.1446 12.4614-79.0801 12.4614-67.0042L12.4614-55.5386C12.4614-49.8605 15.5138-46.8071 21.1302-46.8071ZM105.678-46.8071C111.3-46.8071 114.347-49.8605 114.347-55.5386L114.347-67.0042C114.347-79.0807 107.282-86.1446 95.1902-86.1446L83.7255-86.1446C78.0466-86.1446 74.9942-83.0923 74.9942-77.4703C74.9942-71.8539 78.1039-68.8014 83.7255-68.8014L92.5535-68.8014C95.5455-68.8014 97.0092-67.5753 97.0092-64.3399L97.0092-55.5386C97.0092-49.8605 100.063-46.8071 105.678-46.8071ZM31.6184 15.7476L43.0828 15.7476C48.7621 15.7476 51.8145 12.6952 51.8145 7.07878C51.8145 1.45684 48.7048-1.59565 43.0828-1.59565L34.2552-1.59565C31.2643-1.59565 29.7992-2.82177 29.7992-6.05827L29.7992-14.8531C29.7992-20.5377 26.7467-23.5899 21.1302-23.5899C15.5083-23.5899 12.4614-20.5377 12.4614-14.8531L12.4614-3.39406C12.4614 8.68309 19.5314 15.7476 31.6184 15.7476ZM83.7255 15.7476L95.1902 15.7476C107.282 15.7476 114.347 8.68366 114.347-3.39406L114.347-14.8531C114.347-20.5377 111.295-23.5899 105.678-23.5899C100.058-23.5899 97.0092-20.4804 97.0092-14.8531L97.0092-6.05827C97.0092-2.82177 95.5455-1.59565 92.5535-1.59565L83.7255-1.59565C78.0466-1.59565 74.9942 1.45684 74.9942 7.07878C74.9942 12.6952 78.0466 15.7476 83.7255 15.7476ZM38.285-35.1985C38.285-31.3626 41.0787-28.4598 44.8108-28.4598L82.0034-28.4598C85.7297-28.4598 88.5237-31.3626 88.5237-35.1985C88.5237-39.0394 85.7294-41.9477 82.0034-41.9477L44.8108-41.9477C41.079-41.9477 38.285-39.0394 38.285-35.1985Z"/>
  </g>
  <g id="Heavy-M" transform="matrix(1 0 0 1 2574.03 1126)">
   <path d="M20.0109-48.0083C24.91-48.0083 27.5608-50.7216 27.5608-55.6206L27.5608-65.074C27.5608-68.7332 29.3204-70.2857 32.7563-70.2857L42.2908-70.2857C47.2336-70.2857 49.9005-72.9529 49.9005-77.8355C49.9005-82.7346 47.2336-85.4015 42.2908-85.4015L30.7124-85.4015C19.0753-85.4015 12.4614-78.8041 12.4614-67.1999L12.4614-55.6206C12.4614-50.6787 15.1283-48.0083 20.0109-48.0083ZM105.303-48.0083C110.205-48.0083 112.853-50.6787 112.853-55.6206L112.853-67.1999C112.853-78.7996 106.258-85.4015 94.6019-85.4015L83.0258-85.4015C78.0806-85.4015 75.4137-82.7346 75.4137-77.8355C75.4137-72.9529 78.1244-70.2857 83.0258-70.2857L92.5579-70.2857C95.9847-70.2857 97.7557-68.7332 97.7557-65.074L97.7557-55.6206C97.7557-50.6787 100.422-48.0083 105.303-48.0083ZM30.7124 15.0096L42.2908 15.0096C47.2336 15.0096 49.9005 12.3427 49.9005 7.46004C49.9005 2.5609 47.1898-0.10627 42.2908-0.10627L32.7563-0.10627C29.3204-0.10627 27.5608-1.65877 27.5608-5.31889L27.5608-14.7552C27.5608-19.7142 24.8936-22.3837 20.0109-22.3837C15.1118-22.3837 12.4614-19.7142 12.4614-14.7552L12.4614-3.19288C12.4614 8.41215 19.0753 15.0096 30.7124 15.0096ZM83.0258 15.0096L94.6019 15.0096C106.258 15.0096 112.853 8.4076 112.853-3.19288L112.853-14.7552C112.853-19.7142 110.188-22.3837 105.303-22.3837C100.405-22.3837 97.7557-19.6704 97.7557-14.7552L97.7557-5.31889C97.7557-1.65877 95.9847-0.10627 92.5579-0.10627L83.0258-0.10627C78.0806-0.10627 75.4137 2.5609 75.4137 7.46004C75.4137 12.3427 78.0806 15.0096 83.0258 15.0096ZM36.6212-35.196C36.6212-31.7057 39.1593-29.0965 42.5973-29.0965L82.7334-29.0965C86.1572-29.0965 88.693-31.7057 88.693-35.196C88.693-38.7073 86.1595-41.3329 82.7334-41.3329L42.5973-41.3329C39.157-41.3329 36.6212-38.7073 36.6212-35.196Z"/>
  </g>
  <g id="Bold-M" transform="matrix(1 0 0 1 2278.16 1126)">
   <path d="M18.7589-49.352C22.8493-49.352 25.0568-51.622 25.0568-55.7125L25.0568-65.8951C25.0568-70.0285 27.1458-71.946 31.0796-71.946L41.4047-71.946C45.5238-71.946 47.7595-74.1823 47.7595-78.244C47.7595-82.3345 45.5238-84.5702 41.4047-84.5702L29.6988-84.5702C18.565-84.5702 12.4614-78.4953 12.4614-67.4189L12.4614-55.7125C12.4614-51.5939 14.697-49.352 18.7589-49.352ZM104.884-49.352C108.979-49.352 111.181-51.5939 111.181-55.7125L111.181-67.4189C111.181-78.4851 105.111-84.5702 93.9437-84.5702L82.2429-84.5702C78.1186-84.5702 75.8829-82.3345 75.8829-78.244C75.8829-74.1823 78.1473-71.946 82.2429-71.946L92.5628-71.946C96.4761-71.946 98.5907-70.0285 98.5907-65.8951L98.5907-55.7125C98.5907-51.5939 100.822-49.352 104.884-49.352ZM29.6988 14.184L41.4047 14.184C45.5238 14.184 47.7595 11.9483 47.7595 7.88653C47.7595 3.79595 45.4952 1.55982 41.4047 1.55982L31.0796 1.55982C27.1458 1.55982 25.0568-0.357795 25.0568-4.49178L25.0568-14.6456C25.0568-18.793 22.8207-21.0343 18.7589-21.0343C14.6683-21.0343 12.4614-18.793 12.4614-14.6456L12.4614-2.96784C12.4614 8.10907 18.565 14.184 29.6988 14.184ZM82.2429 14.184L93.9437 14.184C105.111 14.184 111.181 8.09878 111.181-2.96784L111.181-14.6456C111.181-18.793 108.951-21.0343 104.884-21.0343C100.794-21.0343 98.5907-18.7643 98.5907-14.6456L98.5907-4.49178C98.5907-0.357795 96.4761 1.55982 92.5628 1.55982L82.2429 1.55982C78.1186 1.55982 75.8829 3.79595 75.8829 7.88653C75.8829 11.9483 78.1186 14.184 82.2429 14.184ZM34.7601-35.1932C34.7601-32.0894 37.0121-29.8088 40.1211-29.8088L83.55-29.8088C86.6355-29.8088 88.8823-32.0894 88.8823-35.1932C88.8823-38.3359 86.6406-40.6452 83.55-40.6452L40.1211-40.6452C37.007-40.6452 34.7601-38.3359 34.7601-35.1932Z"/>
  </g>
  <g id="Semibold-M" transform="matrix(1 0 0 1 1982.02 1126)">
   <path d="M17.8957-50.2783C21.4287-50.2783 23.3306-52.2427 23.3306-55.7757L23.3306-66.4612C23.3306-70.9215 25.6466-73.0907 29.9237-73.0907L40.7939-73.0907C44.3451-73.0907 46.2835-75.0298 46.2835-78.5257C46.2835-82.0587 44.3451-83.9971 40.7939-83.9971L29.0001-83.9971C18.2132-83.9971 12.4614-78.2824 12.4614-67.5699L12.4614-55.7757C12.4614-52.2249 14.3996-50.2783 17.8957-50.2783ZM104.594-50.2783C108.135-50.2783 110.029-52.2249 110.029-55.7757L110.029-67.5699C110.029-78.2683 104.321-83.9971 93.49-83.9971L81.7033-83.9971C78.1448-83.9971 76.2064-82.0587 76.2064-78.5257C76.2064-75.0298 78.1631-73.0907 81.7033-73.0907L92.5662-73.0907C96.8148-73.0907 99.1664-70.9215 99.1664-66.4612L99.1664-55.7757C99.1664-52.2249 101.099-50.2783 104.594-50.2783ZM29.0001 13.6148L40.7939 13.6148C44.3451 13.6148 46.2835 11.6764 46.2835 8.18055C46.2835 4.64739 44.3269 2.70841 40.7939 2.70841L29.9237 2.70841C25.6466 2.70841 23.3306 0.539093 23.3306-3.92157L23.3306-14.5701C23.3306-18.1579 21.3916-20.1041 17.8957-20.1041C14.3625-20.1041 12.4614-18.1579 12.4614-14.5701L12.4614-2.8127C12.4614 7.90012 18.2132 13.6148 29.0001 13.6148ZM81.7033 13.6148L93.49 13.6148C104.321 13.6148 110.029 7.88588 110.029-2.8127L110.029-14.5701C110.029-18.1579 108.097-20.1041 104.594-20.1041C101.062-20.1041 99.1664-18.1397 99.1664-14.5701L99.1664-3.92157C99.1664 0.539093 96.8148 2.70841 92.5662 2.70841L81.7033 2.70841C78.1448 2.70841 76.2064 4.64739 76.2064 8.18055C76.2064 11.6764 78.1448 13.6148 81.7033 13.6148ZM33.4771-35.1912C33.4771-32.3539 35.5319-30.2998 38.4141-30.2998L84.1129-30.2998C86.9652-30.2998 89.0128-32.3539 89.0128-35.1912C89.0128-38.0798 86.9723-40.171 84.1129-40.171L38.4141-40.171C35.5248-40.171 33.4771-38.0798 33.4771-35.1912Z"/>
  </g>
  <g id="Medium-M" transform="matrix(1 0 0 1 1685.75 1126)">
   <path d="M17.2412-50.9807C20.3515-50.9807 22.0217-52.7134 22.0217-55.8237L22.0217-66.8904C22.0217-71.5986 24.5099-73.9586 29.0472-73.9586L40.3307-73.9586C43.4513-73.9586 45.1643-75.6724 45.1643-78.7392C45.1643-81.8495 43.4513-83.5625 40.3307-83.5625L28.4702-83.5625C17.9465-83.5625 12.4614-78.1209 12.4614-67.6844L12.4614-55.8237C12.4614-52.7033 14.1742-50.9807 17.2412-50.9807ZM104.375-50.9807C107.494-50.9807 109.155-52.7033 109.155-55.8237L109.155-67.6844C109.155-78.1039 103.722-83.5625 93.146-83.5625L81.2941-83.5625C78.1647-83.5625 76.4517-81.8495 76.4517-78.7392C76.4517-75.6724 78.175-73.9586 81.2941-73.9586L92.5688-73.9586C97.0717-73.9586 99.6029-71.5986 99.6029-66.8904L99.6029-55.8237C99.6029-52.7033 101.308-50.9807 104.375-50.9807ZM28.4702 13.1833L40.3307 13.1833C43.4513 13.1833 45.1643 11.4703 45.1643 8.40349C45.1643 5.29298 43.441 3.57932 40.3307 3.57932L29.0472 3.57932C24.5099 3.57932 22.0217 1.21915 22.0217-3.48922L22.0217-14.5129C22.0217-17.6763 20.308-19.3987 17.2412-19.3987C14.1307-19.3987 12.4614-17.6763 12.4614-14.5129L12.4614-2.69507C12.4614 7.74169 17.9465 13.1833 28.4702 13.1833ZM81.2941 13.1833L93.146 13.1833C103.722 13.1833 109.155 7.72446 109.155-2.69507L109.155-14.5129C109.155-17.6763 107.45-19.3987 104.375-19.3987C101.265-19.3987 99.6029-17.666 99.6029-14.5129L99.6029-3.48922C99.6029 1.21915 97.0717 3.57932 92.5688 3.57932L81.2941 3.57932C78.1647 3.57932 76.4517 5.29298 76.4517 8.40349C76.4517 11.4703 78.1647 13.1833 81.2941 13.1833ZM32.5042-35.1897C32.5042-32.5545 34.4095-30.6721 37.1198-30.6721L84.5397-30.6721C87.2152-30.6721 89.1118-32.5545 89.1118-35.1897C89.1118-37.8857 87.2238-39.8115 84.5397-39.8115L37.1198-39.8115C34.401-39.8115 32.5042-37.8857 32.5042-35.1897Z"/>
  </g>
  <g id="Regular-M" transform="matrix(1 0 0 1 1389.61 1126)">
   <path d="M16.3875-51.8969C18.9465-51.8969 20.3144-53.3273 20.3144-55.8863L20.3144-67.4503C20.3144-72.4818 23.0272-75.0906 27.904-75.0906L39.7265-75.0906C42.2855-75.0906 43.7045-76.5106 43.7045-79.0178C43.7045-81.5768 42.2855-82.9957 39.7265-82.9957L27.7792-82.9957C17.5986-82.9957 12.4614-77.9104 12.4614-67.8337L12.4614-55.8863C12.4614-53.3273 13.8801-51.8969 16.3875-51.8969ZM104.089-51.8969C106.659-51.8969 108.015-53.3273 108.015-55.8863L108.015-67.8337C108.015-77.8895 102.94-82.9957 92.6972-82.9957L80.7603-82.9957C78.1906-82.9957 76.7717-81.5768 76.7717-79.0178C76.7717-76.5106 78.1906-75.0906 80.7603-75.0906L92.5722-75.0906C97.4067-75.0906 100.172-72.4818 100.172-67.4503L100.172-55.8863C100.172-53.3273 101.582-51.8969 104.089-51.8969ZM27.7792 12.6204L39.7265 12.6204C42.2855 12.6204 43.7045 11.2014 43.7045 8.69428C43.7045 6.13506 42.2855 4.71529 39.7265 4.71529L27.904 4.71529C23.0272 4.71529 20.3144 2.10618 20.3144-2.92528L20.3144-14.4382C20.3144-17.0482 18.8947-18.4787 16.3875-18.4787C13.8283-18.4787 12.4614-17.0482 12.4614-14.4382L12.4614-2.54163C12.4614 7.53505 17.5986 12.6204 27.7792 12.6204ZM80.7603 12.6204L92.6972 12.6204C102.94 12.6204 108.015 7.5139 108.015-2.54163L108.015-14.4382C108.015-17.0482 106.606-18.4787 104.089-18.4787C101.53-18.4787 100.172-17.0482 100.172-14.4382L100.172-2.92528C100.172 2.10618 97.4067 4.71529 92.5722 4.71529L80.7603 4.71529C78.1906 4.71529 76.7717 6.13506 76.7717 8.69428C76.7717 11.2014 78.1906 12.6204 80.7603 12.6204ZM31.2353-35.1878C31.2353-32.8161 32.9455-31.1578 35.4315-31.1578L85.0965-31.1578C87.5413-31.1578 89.2409-32.8161 89.2409-35.1878C89.2409-37.6324 87.5518-39.3426 85.0965-39.3426L35.4315-39.3426C32.9351-39.3426 31.2353-37.6324 31.2353-35.1878Z"/>
  </g>
  <g id="Light-M" transform="matrix(1 0 0 1 1093.97 1126)">
   <path d="M15.4809-51.9998C17.4408-51.9998 18.5005-53.122 18.5005-55.0818L18.5005-67.3135C18.5005-72.9268 21.4699-75.8265 26.9797-75.8265L39.3844-75.8265C41.3443-75.8265 42.4384-76.9214 42.4384-78.8467C42.4384-80.8066 41.3443-81.9007 39.3844-81.9007L26.8552-81.9007C17.342-81.9007 12.4614-77.0546 12.4614-67.611L12.4614-55.0818C12.4614-53.122 13.555-51.9998 15.4809-51.9998ZM102.84-51.9998C104.828-51.9998 105.859-53.122 105.859-55.0818L105.859-67.611C105.859-76.9998 101.041-81.9007 91.4654-81.9007L78.9637-81.9007C76.9758-81.9007 75.8817-80.8066 75.8817-78.8467C75.8817-76.9214 76.9758-75.8265 78.9637-75.8265L91.3404-75.8265C96.7393-75.8265 99.847-72.9268 99.847-67.3135L99.847-55.0818C99.847-53.122 100.914-51.9998 102.84-51.9998ZM26.8552 11.5597L39.3844 11.5597C41.3443 11.5597 42.4384 10.4655 42.4384 8.54016C42.4384 6.5797 41.3443 5.4855 39.3844 5.4855L26.9797 5.4855C21.4699 5.4855 18.5005 2.58511 18.5005-3.02815L18.5005-15.2254C18.5005-17.2197 17.4063-18.3419 15.4809-18.3419C13.5204-18.3419 12.4614-17.2197 12.4614-15.2254L12.4614-2.73004C12.4614 6.7136 17.342 11.5597 26.8552 11.5597ZM78.9637 11.5597L91.4654 11.5597C101.041 11.5597 105.859 6.65816 105.859-2.73004L105.859-15.2254C105.859-17.2197 104.793-18.3419 102.84-18.3419C100.879-18.3419 99.847-17.2197 99.847-15.2254L99.847-3.02815C99.847 2.58511 96.7393 5.4855 91.3404 5.4855L78.9637 5.4855C76.9758 5.4855 75.8817 6.5797 75.8817 8.54016C75.8817 10.4655 76.9758 11.5597 78.9637 11.5597ZM30.6023-35.1708C30.6023-33.3979 31.953-32.0817 33.8229-32.0817L84.5317-32.0817C86.3951-32.0817 87.7178-33.3979 87.7178-35.1708C87.7178-37.0337 86.4225-38.3844 84.5317-38.3844L33.8229-38.3844C31.9256-38.3844 30.6023-37.0337 30.6023-35.1708Z"/>
  </g>
  <g id="Thin-M" transform="matrix(1 0 0 1 798.687 1126)">
   <path d="M14.2818-52.1358C15.4493-52.1358 16.1013-52.8504 16.1013-54.0178L16.1013-67.1326C16.1013-73.5153 19.4101-76.7998 25.7572-76.7998L38.9319-76.7998C40.0993-76.7998 40.7639-77.4646 40.7639-78.6204C40.7639-79.7879 40.0993-80.4525 38.9319-80.4525L25.6332-80.4525C17.0026-80.4525 12.4614-75.9229 12.4614-67.3165L12.4614-54.0178C12.4614-52.8504 13.1249-52.1358 14.2818-52.1358ZM101.188-52.1358C102.406-52.1358 103.008-52.8504 103.008-54.0178L103.008-67.3165C103.008-75.8232 98.5283-80.4525 89.8363-80.4525L76.5875-80.4525C75.3691-80.4525 74.7045-79.7879 74.7045-78.6204C74.7045-77.4646 75.3691-76.7998 76.5875-76.7998L89.7112-76.7998C95.8567-76.7998 99.4169-73.5153 99.4169-67.1326L99.4169-54.0178C99.4169-52.8504 100.032-52.1358 101.188-52.1358ZM25.6332 10.1568L38.9319 10.1568C40.0993 10.1568 40.7639 9.4922 40.7639 8.33633C40.7639 7.16777 40.0993 6.50415 38.9319 6.50415L25.7572 6.50415C19.4101 6.50415 16.1013 3.21853 16.1013-3.1642L16.1013-16.2665C16.1013-17.4464 15.4377-18.161 14.2818-18.161C13.1133-18.161 12.4614-17.4464 12.4614-16.2665L12.4614-2.97922C12.4614 5.62716 17.0026 10.1568 25.6332 10.1568ZM76.5875 10.1568L89.8363 10.1568C98.5283 10.1568 103.008 5.52638 103.008-2.97922L103.008-16.2665C103.008-17.4464 102.393-18.161 101.188-18.161C100.019-18.161 99.4169-17.4464 99.4169-16.2665L99.4169-3.1642C99.4169 3.21853 95.8567 6.50415 89.7112 6.50415L76.5875 6.50415C75.3691 6.50415 74.7045 7.16777 74.7045 8.33633C74.7045 9.4922 75.3691 10.1568 76.5875 10.1568ZM29.765-35.1484C29.765-34.1674 30.6403-33.3037 31.6954-33.3037L83.7846-33.3037C84.8791-33.3037 85.7034-34.1674 85.7034-35.1484C85.7034-36.2418 84.9289-37.117 83.7846-37.117L31.6954-37.117C30.5905-37.117 29.765-36.2418 29.765-35.1484Z"/>
  </g>
  <g id="Ultralight-M" transform="matrix(1 0 0 1 502.707 1126)">
   <path d="M13.6677-52.2055C14.4293-52.2055 14.8725-52.7113 14.8725-53.4728L14.8725-67.0399C14.8725-73.8168 18.3551-77.2984 25.131-77.2984L38.7001-77.2984C39.4617-77.2984 39.9062-77.7428 39.9062-78.5046C39.9062-79.2661 39.4617-79.7107 38.7001-79.7107L25.0073-79.7107C16.8288-79.7107 12.4614-75.3432 12.4614-67.1656L12.4614-53.4728C12.4614-52.7113 12.9046-52.2055 13.6677-52.2055ZM100.341-52.2055C101.166-52.2055 101.548-52.7113 101.548-53.4728L101.548-67.1656C101.548-75.2205 97.2416-79.7107 89.0018-79.7107L75.3704-79.7107C74.5461-79.7107 74.1016-79.2661 74.1016-78.5046C74.1016-77.7428 74.5461-77.2984 75.3704-77.2984L88.8768-77.2984C95.4047-77.2984 99.1966-73.8168 99.1966-67.0399L99.1966-53.4728C99.1966-52.7113 99.5797-52.2055 100.341-52.2055ZM25.0073 9.4382L38.7001 9.4382C39.4617 9.4382 39.9062 8.99368 39.9062 8.23193C39.9062 7.46898 39.4617 7.0259 38.7001 7.0259L25.131 7.0259C18.3551 7.0259 14.8725 3.54297 14.8725-3.23389L14.8725-16.7997C14.8725-17.5626 14.4294-18.0683 13.6677-18.0683C12.9047-18.0683 12.4614-17.5626 12.4614-16.7997L12.4614-3.10685C12.4614 5.0707 16.8288 9.4382 25.0073 9.4382ZM75.3704 9.4382L89.0018 9.4382C97.2416 9.4382 101.548 4.94668 101.548-3.10685L101.548-16.7997C101.548-17.5626 101.165-18.0683 100.341-18.0683C99.5785-18.0683 99.1966-17.5626 99.1966-16.7997L99.1966-3.23389C99.1966 3.54297 95.4047 7.0259 88.8768 7.0259L75.3704 7.0259C74.5461 7.0259 74.1016 7.46898 74.1016 8.23193C74.1016 8.99368 74.5461 9.4382 75.3704 9.4382ZM29.3362-35.1369C29.3362-34.5615 29.9679-33.9296 30.6057-33.9296L83.402-33.9296C84.1026-33.9296 84.6716-34.5615 84.6716-35.1369C84.6716-35.8361 84.1639-36.4679 83.402-36.4679L30.6057-36.4679C29.9066-36.4679 29.3362-35.8361 29.3362-35.1369Z"/>
  </g>
  <g id="Black-S" transform="matrix(1 0 0 1 2883.55 696)">
   <path d="M16.846-43.945C21.436-43.945 23.926-46.484 23.926-51.074L23.926-57.813C23.926-60.254 25-61.133 27.246-61.133L33.984-61.133C38.623-61.133 41.113-63.623 41.113-68.213C41.113-72.803 38.623-75.293 33.984-75.293L25-75.293C15.43-75.293 9.766-69.629 9.766-60.059L9.766-51.074C9.766-46.436 12.256-43.945 16.846-43.945ZM82.861-43.945C87.451-43.945 89.941-46.436 89.941-51.074L89.941-60.059C89.941-69.629 84.277-75.293 74.707-75.293L65.723-75.293C61.084-75.293 58.594-72.803 58.594-68.213C58.594-63.623 61.133-61.133 65.723-61.133L72.461-61.133C74.707-61.133 75.781-60.254 75.781-57.813L75.781-51.074C75.781-46.436 78.272-43.945 82.861-43.945ZM25 4.883L33.984 4.883C38.623 4.883 41.113 2.393 41.113-2.197C41.113-6.787 38.574-9.277 33.984-9.277L27.246-9.277C25-9.277 23.926-10.156 23.926-12.598L23.926-19.336C23.926-23.975 21.436-26.465 16.846-26.465C12.256-26.465 9.766-23.975 9.766-19.336L9.766-10.352C9.766-0.781 15.43 4.883 25 4.883ZM65.723 4.883L74.707 4.883C84.277 4.883 89.941-0.781 89.941-10.352L89.941-19.336C89.941-23.975 87.451-26.465 82.861-26.465C78.272-26.465 75.781-23.926 75.781-19.336L75.781-12.598C75.781-10.156 74.707-9.277 72.461-9.277L65.723-9.277C61.084-9.277 58.594-6.787 58.594-2.197C58.594 2.393 61.084 4.883 65.723 4.883ZM30.471-35.205C30.471-32.129 32.717-29.785 35.695-29.785L64.012-29.785C66.99-29.785 69.236-32.129 69.236-35.205C69.236-38.281 66.99-40.625 64.012-40.625L35.695-40.625C32.717-40.625 30.471-38.281 30.471-35.205Z"/>
  </g>
  <g id="Heavy-S" transform="matrix(1 0 0 1 2587.34 696)">
   <path d="M16.0046-44.9592C20.0529-44.9592 22.2434-47.1987 22.2434-51.247L22.2434-58.4583C22.2434-61.1875 23.5364-62.3084 26.0822-62.3084L33.3503-62.3084C37.4361-62.3084 39.6379-64.5104 39.6379-68.5472C39.6379-72.5955 37.4361-74.7974 33.3503-74.7974L24.3432-74.7974C15.0727-74.7974 9.766-69.5023 9.766-60.2549L9.766-51.247C9.766-47.162 11.9678-44.9592 16.0046-44.9592ZM82.6998-44.9592C86.7481-44.9592 88.9384-47.162 88.9384-51.247L88.9384-60.2549C88.9384-69.5023 83.6433-74.7974 74.3612-74.7974L65.3541-74.7974C61.2683-74.7974 59.0665-72.5955 59.0665-68.5472C59.0665-64.5104 61.3058-62.3084 65.3541-62.3084L72.6222-62.3084C75.1679-62.3084 76.461-61.1875 76.461-58.4583L76.461-51.247C76.461-47.162 78.6638-44.9592 82.6998-44.9592ZM24.3432 4.38736L33.3503 4.38736C37.4361 4.38736 39.6379 2.18554 39.6379-1.85123C39.6379-5.89956 37.3986-8.10162 33.3503-8.10162L26.0822-8.10162C23.5364-8.10162 22.2434-9.22254 22.2434-11.9525L22.2434-19.1517C22.2434-23.2488 20.0414-25.4508 16.0046-25.4508C11.9563-25.4508 9.766-23.2488 9.766-19.1517L9.766-10.1559C9.766-0.907743 15.0727 4.38736 24.3432 4.38736ZM65.3541 4.38736L74.3612 4.38736C83.6433 4.38736 88.9384-0.907743 88.9384-10.1559L88.9384-19.1517C88.9384-23.2488 86.7366-25.4508 82.6998-25.4508C78.6522-25.4508 76.461-23.2113 76.461-19.1517L76.461-11.9525C76.461-9.22254 75.1679-8.10162 72.6222-8.10162L65.3541-8.10162C61.2683-8.10162 59.0665-5.89956 59.0665-1.85123C59.0665 2.18554 61.2683 4.38736 65.3541 4.38736ZM29.129-35.205C29.129-32.348 31.2022-30.2115 34.0074-30.2115L64.7085-30.2115C67.5022-30.2115 69.5754-32.348 69.5754-35.205C69.5754-38.0735 67.5022-40.2216 64.7085-40.2216L34.0074-40.2216C31.2022-40.2216 29.129-38.0735 29.129-35.205Z"/>
  </g>
  <g id="Bold-S" transform="matrix(1 0 0 1 2291.19 696)">
   <path d="M15.0635-46.0935C18.506-46.0935 20.3615-47.998 20.3615-51.4405L20.3615-59.18C20.3615-62.2315 21.8995-63.623 24.7805-63.623L32.6415-63.623C36.1085-63.623 37.988-65.503 37.988-68.921C37.988-72.3635 36.1085-74.243 32.6415-74.243L23.6085-74.243C14.673-74.243 9.766-69.3605 9.766-60.474L9.766-51.4405C9.766-47.974 11.6455-46.0935 15.0635-46.0935ZM82.5195-46.0935C85.962-46.0935 87.817-47.974 87.817-51.4405L87.817-60.474C87.817-69.3605 82.9345-74.243 73.9745-74.243L64.9415-74.243C61.4745-74.243 59.595-72.3635 59.595-68.921C59.595-65.503 61.499-63.623 64.9415-63.623L72.8025-63.623C75.6835-63.623 77.2215-62.2315 77.2215-59.18L77.2215-51.4405C77.2215-47.974 79.102-46.0935 82.5195-46.0935ZM23.6085 3.833L32.6415 3.833C36.1085 3.833 37.988 1.9535 37.988-1.4645C37.988-4.907 36.084-6.787 32.6415-6.787L24.7805-6.787C21.8995-6.787 20.3615-8.1785 20.3615-11.2305L20.3615-18.9455C20.3615-22.4365 18.4815-24.3165 15.0635-24.3165C11.621-24.3165 9.766-22.4365 9.766-18.9455L9.766-9.9365C9.766-1.0495 14.673 3.833 23.6085 3.833ZM64.9415 3.833L73.9745 3.833C82.9345 3.833 87.817-1.0495 87.817-9.9365L87.817-18.9455C87.817-22.4365 85.9375-24.3165 82.5195-24.3165C79.0775-24.3165 77.2215-22.412 77.2215-18.9455L77.2215-11.2305C77.2215-8.1785 75.6835-6.787 72.8025-6.787L64.9415-6.787C61.4745-6.787 59.595-4.907 59.595-1.4645C59.595 1.9535 61.4745 3.833 64.9415 3.833ZM27.628-35.205C27.628-32.593 29.508-30.6885 32.12-30.6885L65.4875-30.6885C68.075-30.6885 69.955-32.593 69.955-35.205C69.955-37.8415 68.075-39.7705 65.4875-39.7705L32.12-39.7705C29.508-39.7705 27.628-37.8415 27.628-35.205Z"/>
  </g>
  <g id="Semibold-S" transform="matrix(1 0 0 1 1994.86 696)">
   <path d="M14.4147-46.8756C17.4395-46.8756 19.064-48.5491 19.064-51.5739L19.064-59.6776C19.064-62.9513 20.7709-64.5294 23.8831-64.5294L32.1528-64.5294C35.1932-64.5294 36.8505-66.1873 36.8505-69.1787C36.8505-72.2035 35.1932-73.8608 32.1528-73.8608L23.102-73.8608C14.3975-73.8608 9.766-69.2628 9.766-60.6251L9.766-51.5739C9.766-48.5338 11.4233-46.8756 14.4147-46.8756ZM82.3952-46.8756C85.42-46.8756 87.0439-48.5338 87.0439-51.5739L87.0439-60.6251C87.0439-69.2628 82.4458-73.8608 73.7079-73.8608L64.657-73.8608C61.6166-73.8608 59.9594-72.2035 59.9594-69.1787C59.9594-66.1873 61.6322-64.5294 64.657-64.5294L72.9268-64.5294C76.0389-64.5294 77.7458-62.9513 77.7458-59.6776L77.7458-51.5739C77.7458-48.5338 79.4041-46.8756 82.3952-46.8756ZM23.102 3.4508L32.1528 3.4508C35.1932 3.4508 36.8505 1.79352 36.8505-1.19787C36.8505-4.22268 35.1776-5.88064 32.1528-5.88064L23.8831-5.88064C20.7709-5.88064 19.064-7.45869 19.064-10.7327L19.064-18.8034C19.064-21.8765 17.4061-23.5344 14.4147-23.5344C11.3899-23.5344 9.766-21.8765 9.766-18.8034L9.766-9.78526C9.766-1.14723 14.3975 3.4508 23.102 3.4508ZM64.657 3.4508L73.7079 3.4508C82.4458 3.4508 87.0439-1.14723 87.0439-9.78526L87.0439-18.8034C87.0439-21.8765 85.3866-23.5344 82.3952-23.5344C79.3707-23.5344 77.7458-21.8609 77.7458-18.8034L77.7458-10.7327C77.7458-7.45869 76.0389-5.88064 72.9268-5.88064L64.657-5.88064C61.6166-5.88064 59.9594-4.22268 59.9594-1.19787C59.9594 1.79352 61.6166 3.4508 64.657 3.4508ZM26.5931-35.205C26.5931-32.7619 28.3399-31.0174 30.8187-31.0174L66.0246-31.0174C68.4699-31.0174 70.2167-32.7619 70.2167-35.205C70.2167-37.6815 68.4699-39.4595 66.0246-39.4595L30.8187-39.4595C28.3399-39.4595 26.5931-37.6815 26.5931-35.205Z"/>
  </g>
  <g id="Medium-S" transform="matrix(1 0 0 1 1698.44 696)">
   <path d="M13.9227-47.4685C16.6308-47.4685 18.0802-48.967 18.0802-51.6751L18.0802-60.0549C18.0802-63.4971 19.9152-65.2166 23.2026-65.2166L31.7823-65.2166C34.4992-65.2166 35.988-66.7062 35.988-69.3741C35.988-72.0822 34.4992-73.571 31.7823-73.571L22.7179-73.571C14.1885-73.571 9.766-69.1887 9.766-60.7396L9.766-51.6751C9.766-48.9583 11.2548-47.4685 13.9227-47.4685ZM82.3009-47.4685C85.009-47.4685 86.4576-48.9583 86.4576-51.6751L86.4576-60.7396C86.4576-69.1887 82.0753-73.571 73.5057-73.571L64.4413-73.571C61.7244-73.571 60.2356-72.0822 60.2356-69.3741C60.2356-66.7062 61.7332-65.2166 64.4413-65.2166L73.0211-65.2166C76.3085-65.2166 78.1434-63.4971 78.1434-60.0549L78.1434-51.6751C78.1434-48.9583 79.6332-47.4685 82.3009-47.4685ZM22.7179 3.161L31.7823 3.161C34.4992 3.161 35.988 1.67222 35.988-0.9957C35.988-3.7038 34.4904-5.1934 31.7823-5.1934L23.2026-5.1934C19.9152-5.1934 18.0802-6.9129 18.0802-10.3553L18.0802-18.6956C18.0802-21.4519 16.5906-22.9415 13.9227-22.9415C11.2146-22.9415 9.766-21.4519 9.766-18.6956L9.766-9.67058C9.766-1.22134 14.1885 3.161 22.7179 3.161ZM64.4413 3.161L73.5057 3.161C82.0753 3.161 86.4576-1.22134 86.4576-9.67058L86.4576-18.6956C86.4576-21.4519 84.9689-22.9415 82.3009-22.9415C79.593-22.9415 78.1434-21.443 78.1434-18.6956L78.1434-10.3553C78.1434-6.9129 76.3085-5.1934 73.0211-5.1934L64.4413-5.1934C61.7244-5.1934 60.2356-3.7038 60.2356-0.9957C60.2356 1.67222 61.7244 3.161 64.4413 3.161ZM25.8085-35.205C25.8085-32.89 27.4542-31.2667 29.832-31.2667L66.4318-31.2667C68.7694-31.2667 70.4152-32.89 70.4152-35.205C70.4152-37.5602 68.7694-39.2236 66.4318-39.2236L29.832-39.2236C27.4542-39.2236 25.8085-37.5602 25.8085-35.205Z"/>
  </g>
  <g id="Regular-S" transform="matrix(1 0 0 1 1402.11 696)">
   <path d="M13.281-48.242C15.576-48.242 16.797-49.512 16.797-51.807L16.797-60.547C16.797-64.209 18.799-66.113 22.315-66.113L31.299-66.113C33.594-66.113 34.863-67.383 34.863-69.629C34.863-71.924 33.594-73.193 31.299-73.193L22.217-73.193C13.916-73.193 9.766-69.092 9.766-60.889L9.766-51.807C9.766-49.512 11.035-48.242 13.281-48.242ZM82.178-48.242C84.473-48.242 85.693-49.512 85.693-51.807L85.693-60.889C85.693-69.092 81.592-73.193 73.242-73.193L64.16-73.193C61.865-73.193 60.596-71.924 60.596-69.629C60.596-67.383 61.865-66.113 64.16-66.113L73.144-66.113C76.66-66.113 78.662-64.209 78.662-60.547L78.662-51.807C78.662-49.512 79.932-48.242 82.178-48.242ZM22.217 2.783L31.299 2.783C33.594 2.783 34.863 1.514 34.863-0.732C34.863-3.027 33.594-4.297 31.299-4.297L22.315-4.297C18.799-4.297 16.797-6.201 16.797-9.863L16.797-18.555C16.797-20.898 15.527-22.168 13.281-22.168C10.986-22.168 9.766-20.898 9.766-18.555L9.766-9.521C9.766-1.318 13.916 2.783 22.217 2.783ZM64.16 2.783L73.242 2.783C81.592 2.783 85.693-1.318 85.693-9.521L85.693-18.555C85.693-20.898 84.424-22.168 82.178-22.168C79.883-22.168 78.662-20.898 78.662-18.555L78.662-9.863C78.662-6.201 76.66-4.297 73.144-4.297L64.16-4.297C61.865-4.297 60.596-3.027 60.596-0.732C60.596 1.514 61.865 2.783 64.16 2.783ZM24.785-35.205C24.785-33.057 26.299-31.592 28.545-31.592L66.963-31.592C69.16-31.592 70.674-33.057 70.674-35.205C70.674-37.402 69.16-38.916 66.963-38.916L28.545-38.916C26.299-38.916 24.785-37.402 24.785-35.205Z"/>
  </g>
  <g id="Light-S" transform="matrix(1 0 0 1 1106.36 696)">
   <path d="M12.479-48.333C14.244-48.333 15.1923-49.3303 15.1923-51.0953L15.1923-60.426C15.1923-64.6027 17.4213-66.764 21.4973-66.764L30.9963-66.764C32.7613-66.764 33.743-67.7463 33.743-69.4777C33.743-71.2427 32.7613-72.2243 30.9963-72.2243L21.3997-72.2243C13.689-72.2243 9.766-68.335 9.766-60.692L9.766-51.0953C9.766-49.3303 10.7473-48.333 12.479-48.333ZM81.073-48.333C82.8533-48.333 83.786-49.3303 83.786-51.0953L83.786-60.692C83.786-68.305 79.9117-72.2243 72.1523-72.2243L62.5707-72.2243C60.7903-72.2243 59.8087-71.2427 59.8087-69.4777C59.8087-67.7463 60.7903-66.764 62.5707-66.764L72.0543-66.764C76.0697-66.764 78.3743-64.6027 78.3743-60.426L78.3743-51.0953C78.3743-49.3303 79.3417-48.333 81.073-48.333ZM21.3997 1.84467L30.9963 1.84467C32.7613 1.84467 33.743 0.863 33.743-0.868333C33.743-2.63367 32.7613-3.61567 30.9963-3.61567L21.4973-3.61567C17.4213-3.61567 15.1923-5.77733 15.1923-9.954L15.1923-19.2513C15.1923-21.0497 14.2103-22.047 12.479-22.047C10.7137-22.047 9.766-21.0497 9.766-19.2513L9.766-9.68767C9.766-2.04467 13.689 1.84467 21.3997 1.84467ZM62.5707 1.84467L72.1523 1.84467C79.9117 1.84467 83.786-2.075 83.786-9.68767L83.786-19.2513C83.786-21.0497 82.8193-22.047 81.073-22.047C79.3077-22.047 78.3743-21.0497 78.3743-19.2513L78.3743-9.954C78.3743-5.77733 76.0697-3.61567 72.0543-3.61567L62.5707-3.61567C60.7903-3.61567 59.8087-2.63367 59.8087-0.868333C59.8087 0.863 60.7903 1.84467 62.5707 1.84467ZM24.225-35.19C24.225-33.5717 25.421-32.4093 27.122-32.4093L66.4633-32.4093C68.146-32.4093 69.3267-33.5717 69.3267-35.19C69.3267-36.8723 68.161-38.0683 66.4633-38.0683L27.122-38.0683C25.406-38.0683 24.225-36.8723 24.225-35.19Z"/>
  </g>
  <g id="Thin-S" transform="matrix(1 0 0 1 810.907 696)">
   <path d="M11.4183-48.4534C12.4823-48.4534 13.07-49.0901 13.07-50.1541L13.07-60.266C13.07-65.1233 15.5993-67.625 20.4159-67.625L30.596-67.625C31.6601-67.625 32.2617-68.2269 32.2617-69.2775C32.2617-70.3415 31.6601-70.9432 30.596-70.9432L20.3187-70.9432C13.3888-70.9432 9.766-67.3338 9.766-60.4315L9.766-50.1541C9.766-49.0901 10.3669-48.4534 11.4183-48.4534ZM79.6115-48.4534C80.7112-48.4534 81.2638-49.0901 81.2638-50.1541L81.2638-60.4315C81.2638-67.2641 77.6893-70.9432 70.7112-70.9432L60.4686-70.9432C59.369-70.9432 58.7674-70.3415 58.7674-69.2775C58.7674-68.2269 59.369-67.625 60.4686-67.625L70.6132-67.625C75.2889-67.625 77.9939-65.1233 77.9939-60.266L77.9939-50.1541C77.9939-49.0901 78.5609-48.4534 79.6115-48.4534ZM20.3187 0.603645L30.596 0.603645C31.6601 0.603645 32.2617 0.002 32.2617-1.04865C32.2617-2.11345 31.6601-2.71455 30.596-2.71455L20.4159-2.71455C15.5993-2.71455 13.07-5.217 13.07-10.0744L13.07-20.1723C13.07-21.2503 12.4689-21.887 11.4183-21.887C10.3535-21.887 9.766-21.2503 9.766-20.1723L9.766-9.9081C9.766-3.00574 13.3888 0.603645 20.3187 0.603645ZM60.4686 0.603645L70.7112 0.603645C77.6893 0.603645 81.2638-3.07619 81.2638-9.9081L81.2638-20.1723C81.2638-21.2503 80.697-21.887 79.6115-21.887C78.5467-21.887 77.9939-21.2503 77.9939-20.1723L77.9939-10.0744C77.9939-5.217 75.2889-2.71455 70.6132-2.71455L60.4686-2.71455C59.369-2.71455 58.7674-2.11345 58.7674-1.04865C58.7674 0.002 59.369 0.603645 60.4686 0.603645ZM23.4844-35.1702C23.4844-34.2524 24.2598-33.4903 25.24-33.4903L65.8025-33.4903C66.8049-33.4903 67.5447-34.2524 67.5447-35.1702C67.5447-36.1718 66.8397-36.9472 65.8025-36.9472L25.24-36.9472C24.2249-36.9472 23.4844-36.1718 23.4844-35.1702Z"/>
  </g>
  <g id="Ultralight-S" transform="matrix(1 0 0 1 514.842 696)">
   <path d="M10.875-48.515C11.58-48.515 11.983-48.967 11.983-49.672L11.983-60.184C11.983-65.39 14.666-68.066 19.862-68.066L30.391-68.066C31.096-68.066 31.503-68.473 31.503-69.175C31.503-69.88 31.096-70.287 30.391-70.287L19.765-70.287C13.235-70.287 9.766-66.821 9.766-60.298L9.766-49.672C9.766-48.967 10.172-48.515 10.875-48.515ZM78.863-48.515C79.614-48.515 79.972-48.967 79.972-49.672L79.972-60.298C79.972-66.731 76.551-70.287 69.973-70.287L59.392-70.287C58.641-70.287 58.234-69.88 58.234-69.175C58.234-68.473 58.641-68.066 59.392-68.066L69.875-68.066C74.889-68.066 77.799-65.39 77.799-60.184L77.799-49.672C77.799-48.967 78.161-48.515 78.863-48.515ZM19.765-0.032L30.391-0.032C31.096-0.032 31.503-0.439 31.503-1.141C31.503-1.847 31.096-2.253 30.391-2.253L19.862-2.253C14.666-2.253 11.983-4.93 11.983-10.136L11.983-20.644C11.983-21.353 11.577-21.805 10.875-21.805C10.169-21.805 9.766-21.353 9.766-20.644L9.766-10.021C9.766-3.498 13.235-0.032 19.765-0.032ZM59.392-0.032L69.973-0.032C76.551-0.032 79.972-3.589 79.972-10.021L79.972-20.644C79.972-21.353 79.61-21.805 78.863-21.805C78.157-21.805 77.799-21.353 77.799-20.644L77.799-10.136C77.799-4.93 74.889-2.253 69.875-2.253L59.392-2.253C58.641-2.253 58.234-1.847 58.234-1.141C58.234-0.439 58.641-0.032 59.392-0.032ZM23.105-35.16C23.105-34.601 23.665-34.044 24.276-34.044L65.464-34.044C66.118-34.044 66.632-34.601 66.632-35.16C66.632-35.813 66.163-36.373 65.464-36.373L24.276-36.373C23.62-36.373 23.105-35.813 23.105-35.16Z"/>
  </g>
 </g>
</svg>
